<?xml version="1.0" encoding="UTF-8"?>
<svg id="Layer_2" data-name="Layer 2" xmlns="http://www.w3.org/2000/svg" viewBox="0 0 589.63 119.68">
  <defs>
    <style>
      .cls-1 {
        fill: #fff;
      }
    </style>
  </defs>
  <g id="Layer_1-2" data-name="Layer 1">
    <g>
      <path class="cls-1" d="M50.31,29.92c-11.73,0-21.1,4.71-28.11,14.14v-11.84H0v84.83h23.18v-45.54c0-14.91,6.14-22.36,18.41-22.36,5.7,0,9.54,1.56,11.51,4.69,1.97,3.12,2.96,7.7,2.96,13.73v49.48h23.67v-56.72c0-9.75-2.63-17.26-7.89-22.52s-12.44-7.89-21.54-7.89Z"/>
      <path class="cls-1" d="M133.4,29.76c-13.26,0-23.95,4.11-32.06,12.33-8.11,8.22-12.17,19.07-12.17,32.55s4,24.5,12,32.72,18.63,12.33,31.89,12.33,23.87-4.11,31.81-12.33,11.92-19.12,11.92-32.72-3.97-24.33-11.92-32.55-18.44-12.33-31.48-12.33ZM148.12,94.78c-3.56,4.88-8.58,7.32-15.04,7.32s-11.51-2.41-15.12-7.23c-3.62-4.82-5.42-11.56-5.42-20.22s1.81-15.07,5.42-19.89c3.62-4.82,8.55-7.23,14.8-7.23s11.54,2.38,15.21,7.15,5.51,11.37,5.51,19.81-1.78,15.43-5.34,20.3Z"/>
      <path class="cls-1" d="M232.65,48v-15.78h-17.26V6.58h-23.18v25.65h-14.14v15.78h14.14v44.06c0,10.19,1.84,17.07,5.51,20.63,3.67,3.56,10.6,5.34,20.8,5.34,3.73,0,8.44-.22,14.14-.66v-17.75c-1.86.22-4.22.33-7.07.33-2.52,0-4.47-.19-5.84-.58-1.37-.38-2.38-1.18-3.04-2.38-.66-1.21-1.04-2.38-1.15-3.53-.11-1.15-.16-2.99-.16-5.51v-39.95h17.26Z"/>
      <path class="cls-1" d="M291.77,30.08c-11.18,0-20.11,4.49-26.8,13.48V0h-23.02v117.05h23.02v-43.24c0-7.45,1.29-13.43,3.86-17.92,2.58-4.49,7.37-6.74,14.39-6.74,5.81,0,9.75,1.53,11.84,4.6,2.08,3.07,3.12,7.51,3.12,13.32v49.98h23.34v-55.57c0-20.93-9.92-31.4-29.76-31.4Z"/>
      <path class="cls-1" d="M372.49,29.76c-12.38,0-22.58,4.27-30.58,12.82-8,8.55-12,19.4-12,32.55s3.97,24.11,11.92,32.22c7.95,8.11,18.44,12.17,31.48,12.17,9.75,0,18.17-2.52,25.24-7.56,7.07-5.04,11.92-12.11,14.55-21.21h-22.36c-3.29,8.22-9.04,12.33-17.26,12.33-6.25,0-11.1-1.92-14.55-5.75s-5.23-9.43-5.34-16.77h60.83v-2.3c0-14.91-3.78-26.71-11.34-35.43-7.56-8.71-17.75-13.07-30.58-13.07ZM353.59,65.76c.66-5.92,2.68-10.58,6.08-13.97,3.4-3.4,7.67-5.1,12.82-5.1,5.48,0,9.75,1.78,12.82,5.34,3.07,3.56,4.88,8.14,5.42,13.73h-37.15Z"/>
      <path class="cls-1" d="M492.07,74.06c-1.86-1.7-4.49-3.23-7.89-4.6s-6.27-2.36-8.63-2.96c-2.36-.6-5.51-1.29-9.45-2.06-.55-.11-1.42-.27-2.63-.49-6.79-1.42-11.51-2.74-14.14-3.95-2.63-1.21-3.95-3.34-3.95-6.41,0-2.63,1.15-4.68,3.45-6.16,2.3-1.48,5.54-2.22,9.7-2.22,4.93,0,8.69.88,11.26,2.63,2.58,1.75,4.19,4.77,4.85,9.04h21.7c-.33-9.32-3.89-16.17-10.69-20.55s-15.51-6.58-26.14-6.58c-11.84,0-20.99,2.25-27.45,6.74-6.47,4.49-9.7,10.91-9.7,19.24,0,2.19.19,4.22.58,6.08s1.1,3.54,2.14,5.01,2,2.77,2.88,3.86c.88,1.1,2.22,2.11,4.03,3.04,1.81.93,3.26,1.7,4.36,2.3,1.1.6,2.82,1.23,5.18,1.89,2.36.66,4.06,1.12,5.1,1.4s2.88.69,5.51,1.23c2.63.55,4.33.93,5.1,1.15.33.11.77.22,1.32.33,6.79,1.53,11.45,2.96,13.97,4.27,2.52,1.31,3.78,3.56,3.78,6.74s-1.4,5.73-4.19,7.64-6.55,2.88-11.26,2.88c-11.29,0-17.32-4.71-18.08-14.14h-22.19c.11,10.19,3.89,17.75,11.34,22.69,7.45,4.93,16.93,7.4,28.44,7.4s21.54-2.58,28.44-7.73c6.9-5.15,10.36-12.17,10.36-21.04,0-3.73-.71-7.01-2.14-9.86s-3.07-5.12-4.93-6.82Z"/>
      <path class="cls-1" d="M547.71,29.76c-12.38,0-22.58,4.27-30.58,12.82-8,8.55-12,19.4-12,32.55s3.97,24.11,11.92,32.22c7.95,8.11,18.44,12.17,31.48,12.17,9.75,0,18.17-2.52,25.24-7.56,7.07-5.04,11.92-12.11,14.55-21.21h-22.36c-3.29,8.22-9.04,12.33-17.26,12.33-6.25,0-11.1-1.92-14.55-5.75s-5.23-9.43-5.34-16.77h60.83v-2.3c0-14.91-3.78-26.71-11.34-35.43s-17.75-13.07-30.58-13.07ZM528.8,65.76c.66-5.92,2.68-10.58,6.08-13.97,3.4-3.4,7.67-5.1,12.82-5.1,5.48,0,9.75,1.78,12.82,5.34,3.07,3.56,4.88,8.14,5.42,13.73h-37.15Z"/>
    </g>
  </g>
</svg>